# xmcd
#
# Track frame offsets: 
#        150
#        14925
#        28307
#        41156
#        58491
#        76871
#        99332
#        121151
#        141623
#        156110
#        178687
#        198564
#        211649
#        224667
#        239908
#        254259
#        274447
#
# Disc length: 3792 seconds
#
# Revision: 4
# Processed by: cddbd v1.5.2PL0 Copyright (c) Steve Scherf et al.
# Submitted via: ExactAudioCopyFreeDBPlugin 1.0
#
DISCID=140ece11
DTITLE=Eliane Elias - Something For You: Eliane Elias Sings and Plays Bi
DTITLE=ll Evans
DYEAR=2007
DGENRE=Jazz
TTITLE0=You And The Night And The Music
TTITLE1=Here Is Something For You
TTITLE2=A Sleepin' Bee
TTITLE3=But Not For Me
TTITLE4=Waltz For Debby
TTITLE5=Five
TTITLE6=Blue In Green
TTITLE7=Detour Ahead
TTITLE8=Minha (All Mine)
TTITLE9=My Foolish Heart
TTITLE10=But Beautiful - Here's That Rainy Day
TTITLE11=I Love My Wife 
TTITLE12=For Nenette
TTITLE13=Evanesque
TTITLE14=Solar
TTITLE15=After All
TTITLE16=Introduction To "Here Is Something For You"
EXTD=YEAR: 2008
EXTT0=
EXTT1=
EXTT2=
EXTT3=
EXTT4=
EXTT5=
EXTT6=
EXTT7=
EXTT8=
EXTT9=
EXTT10=
EXTT11=
EXTT12=
EXTT13=
EXTT14=
EXTT15=
EXTT16=
PLAYORDER=
